<svg width="116" height="106" viewBox="0 0 116 106" fill="none" xmlns="http://www.w3.org/2000/svg">
<g clip-path="url(#clip0_151_28)">
<path d="M111.351 32.5765C108.471 26.2941 104.279 20.5829 99.0099 15.7613C93.7599 10.9225 87.5292 7.06208 80.6654 4.39541C73.5496 1.61872 65.8939 0.181838 58.1569 0.170839C50.344 0.148204 42.7692 1.51931 35.6243 4.26492C28.7452 6.89178 22.4923 10.716 17.2143 15.5244C11.9179 20.3193 7.68798 26.0048 4.7575 32.2677C1.72633 38.7645 0.1628 45.7537 0.160559 52.8168C0.13994 59.9338 1.64563 66.8507 4.65644 73.3922C7.5371 79.6746 11.7288 85.3857 16.9979 90.2074C22.248 95.0462 28.4786 98.9066 35.3424 101.573C42.4522 104.368 50.1119 105.805 57.8509 105.798C65.6458 105.82 73.2205 104.466 80.3835 101.704C94.2657 96.4065 105.333 86.3716 111.232 73.734C114.284 67.2541 115.854 60.2729 115.847 53.2179C115.868 46.1009 114.362 39.2171 111.351 32.6755L111.351 32.5765ZM57.8685 98.4761C30.3587 98.3964 8.10321 77.9577 8.17598 52.84C8.24875 27.7223 30.6222 7.41286 58.1321 7.49256C85.642 7.57226 107.897 28.011 107.825 53.1287C107.752 78.2464 85.3784 98.5558 57.8685 98.4761ZM73.7303 18.3521L42.4712 18.2615C38.0267 18.2464 34.2757 19.6682 31.2184 22.5269C28.1407 25.3371 26.605 28.7724 26.5934 32.7766L26.4636 77.5982C26.4579 79.5756 27.0932 81.1586 28.3694 82.4167C29.6459 83.6055 31.3215 84.2838 33.4293 84.2899C35.5745 84.2939 37.3092 83.7025 38.6335 82.5158C39.9566 81.3147 40.6191 79.7519 40.6249 77.7581L40.7596 31.2694L51.0781 31.2993L50.9438 77.6527C50.9381 79.6135 51.5734 81.1965 52.8137 82.405C54.0539 83.6135 55.7658 84.2358 57.9098 84.242C60.0537 84.2482 61.7728 83.6326 63.0164 82.4346C64.2781 81.2345 64.9105 79.654 64.9138 77.6931L65.0481 31.3398L75.3846 31.3697L75.2503 77.7231C75.2447 79.6839 75.88 81.267 77.1962 82.4757C78.5123 83.6844 80.2604 84.3067 82.3899 84.3129C84.4977 84.319 86.177 83.7033 87.4605 82.4526C88.762 81.235 89.4065 79.6556 89.412 77.7641L89.5419 32.9424C89.5559 28.9372 88.0341 25.5051 84.9764 22.6464C81.9333 19.7821 78.1919 18.3287 73.7268 18.3158L73.7303 18.3521Z" fill="#FFC702"/>
</g>
<defs>
<clipPath id="clip0_151_28">
<rect width="115" height="105" fill="white" transform="translate(0.306036) scale(1.00604) rotate(0.16599)"/>
</clipPath>
</defs>
</svg>
