<svg width="70" height="70" viewBox="0 0 70 70" fill="none" xmlns="http://www.w3.org/2000/svg">
<path d="M35.09 3.90198C33.863 5.33993 32.2403 6.82553 30.4913 8.43468C28.1995 10.5431 25.7079 12.8255 23.7305 15.1844C21.7534 17.5433 20.326 19.9637 19.9951 22.2617C19.68 24.4493 20.2432 26.5975 22.467 28.982L47.5676 29.0547C49.805 26.6832 50.3808 24.5383 50.0784 22.349C49.7606 20.0489 48.3474 17.6203 46.3838 15.2502C44.4202 12.8801 41.942 10.5832 39.6622 8.46139C37.9229 6.84213 36.3086 5.34701 35.09 3.90198ZM4.53762 9.29918C2.35013 11.474 2.34381 13.6552 2.33749 15.8364L3.29175 15.8392L3.26371 25.5181L2.30945 25.5154L2.30234 27.9692L3.2566 27.972L3.14642 66.0062L5.60024 66.0133L5.71043 27.9791L6.66469 27.9818L6.6718 25.528L5.71754 25.5252L5.74558 15.8463L6.69984 15.849C6.70616 13.6679 6.71248 11.4867 4.53762 9.29918ZM65.6106 9.47611C63.4231 11.651 63.4168 13.8321 63.4105 16.0133L64.3647 16.0161L64.3367 25.6951L63.3824 25.6923L63.3753 28.1461L64.3296 28.1489L64.2194 66.1832L66.6732 66.1903L66.7834 28.156L67.7377 28.1588L67.7448 25.7049L66.7905 25.7022L66.8186 16.0232L67.7728 16.026C67.7791 13.8448 67.7855 11.6636 65.6106 9.47611ZM15.3894 28.0071C13.2019 30.182 11.0144 32.3568 11.0081 34.538L10.999 37.6734L19.7237 37.6987L19.7328 34.5633C19.7391 32.3821 17.5643 30.1946 15.3894 28.0071ZM54.6506 28.1208C52.4631 30.2957 50.2756 32.4706 50.2693 34.6517L50.2602 37.7872L58.9849 37.8125L58.994 34.677C59.0003 32.4958 56.8255 30.3083 54.6506 28.1208ZM23.15 31.4377L23.1444 33.3462L46.8648 33.415L46.8703 31.5064L23.15 31.4377ZM23.1373 35.8001L23.0497 66.0639L28.3663 66.0793L28.4196 47.6756C28.4259 45.4944 32.8009 41.1447 34.9884 38.9699C37.1633 41.1574 41.513 45.5324 41.5067 47.7135L41.4533 66.1172L46.77 66.1326L46.8576 35.8688L23.1373 35.8001ZM10.0376 40.1245L9.9626 66.026L20.5958 66.0568L20.6709 40.1553L10.0376 40.1245ZM49.2988 40.2382L49.2238 66.1397L59.857 66.1705L59.9321 40.269L49.2988 40.2382ZM15.3515 41.0942C15.3515 41.0942 17.5294 42.223 17.5263 43.2817L17.5137 47.644L13.1514 47.6314L13.164 43.269C13.1671 42.2103 15.3515 41.0942 15.3515 41.0942ZM54.6105 41.9528C54.6105 41.9528 56.7885 43.0815 56.7854 44.1403L56.7728 48.5026L52.4104 48.49L52.423 44.1276C52.4261 43.0688 54.6105 41.9528 54.6105 41.9528ZM15.3262 49.8189C15.3262 49.8189 17.5041 50.9477 17.5011 52.0064L17.4884 56.3687L13.1261 56.3561L13.1387 51.9937C13.1418 50.9351 15.3262 49.8189 15.3262 49.8189ZM54.5874 49.9326C54.5874 49.9326 56.7653 51.0614 56.7623 52.1201L56.7496 56.4825L52.3873 56.4698L52.3999 52.1075C52.403 51.0488 54.5874 49.9326 54.5874 49.9326ZM15.3009 58.5436C15.3009 58.5436 17.4789 59.6724 17.4758 60.7311L17.4632 65.0934L13.1008 65.0808L13.1134 60.7184C13.1165 59.6598 15.3009 58.5436 15.3009 58.5436ZM54.5621 58.6573C54.5621 58.6573 56.7401 59.7861 56.737 60.8448L56.7244 65.2072L52.362 65.1945L52.3746 60.8322C52.3777 59.7735 54.5621 58.6573 54.5621 58.6573Z" fill="white"/>
</svg>
