<svg width="75" height="75" viewBox="0 0 75 75" fill="none" xmlns="http://www.w3.org/2000/svg">
<path d="M6.2498 68.5694C6.26257 64.1603 6.26896 61.9573 7.64394 60.5965C9.01582 59.2294 11.2157 59.2358 15.6248 59.2486C20.0339 59.2614 22.2369 59.2677 23.5977 60.6427C24.9648 62.0146 24.9584 64.2176 24.9456 68.6236L25.0269 40.5798C25.0396 36.1707 25.046 33.9678 26.421 32.6069C27.7929 31.2399 29.9959 31.2463 34.4019 31.259L40.6338 31.2771C45.0429 31.2898 47.2459 31.2962 48.6067 32.6712C49.9738 34.0431 49.9674 36.2461 49.9546 40.6521L49.8734 68.6958L49.9005 59.3479C49.9132 54.9388 49.9196 52.7358 51.2946 51.375C52.6665 50.0079 54.8664 50.0143 59.2755 50.0271C63.6846 50.0398 65.8876 50.0462 67.2484 51.4212C68.6154 52.7931 68.6091 54.9961 68.5963 59.4021L68.5692 68.75" stroke="white" stroke-width="3.03177" stroke-linecap="round"/>
<path d="M34.9197 9.52024C36.11 7.39546 36.7051 6.33774 37.59 6.34031C38.475 6.34287 39.0639 7.40402 40.2418 9.53566L40.5456 10.085C40.8804 10.6904 41.0478 10.99 41.3089 11.1902C41.5732 11.3904 41.9002 11.4661 42.5541 11.6145L43.1457 11.7533C45.4438 12.2803 46.5929 12.5423 46.8645 13.4218C47.1362 14.3013 46.3483 15.2182 44.7757 17.0459L44.3692 17.5183C43.9221 18.0374 43.697 18.2954 43.5964 18.6192C43.4957 18.9429 43.529 19.2889 43.5924 19.984L43.6529 20.6167C43.8826 23.0634 43.9975 24.2883 43.2824 24.8284C42.5641 25.3716 41.4874 24.87 39.3372 23.8729L38.7833 23.6157C38.1702 23.3335 37.8653 23.1893 37.5412 23.1884C37.2172 23.1874 36.9114 23.3299 36.2967 23.6085L35.7413 23.8624C33.5853 24.8471 32.5058 25.3425 31.7907 24.7951C31.0756 24.2509 31.2006 23.0267 31.4445 20.5813L31.5087 19.9489C31.5761 19.2543 31.6114 18.9085 31.5126 18.5841C31.4139 18.2598 31.1903 18.0005 30.7462 17.4789L30.3425 17.0041C28.7805 15.1673 27.9979 14.249 28.2746 13.3679C28.5514 12.49 29.7019 12.2347 32.003 11.721L32.5955 11.5856C33.2502 11.4411 33.5776 11.3704 33.8431 11.1686C34.1054 10.9699 34.2745 10.6713 34.6128 10.0678L34.9197 9.52024Z" stroke="white" stroke-width="3"/>
</svg>
