<svg width="106" height="106" viewBox="0 0 106 106" fill="none" xmlns="http://www.w3.org/2000/svg">
<path d="M37.5074 80.2156C33.5207 79.0722 29.809 77.2691 26.5128 74.9254C21.4221 71.3184 17.3459 66.4613 14.677 60.8218C12.0081 55.1824 10.8365 48.9507 11.2749 42.727C11.7133 36.5033 13.747 30.4974 17.1801 25.2878C20.6133 20.0782 25.3301 15.8404 30.8763 12.9828C36.4224 10.1251 42.6111 8.74378 48.846 8.97191C55.0809 9.20005 61.152 11.0299 66.4745 14.2853C71.797 17.5406 76.1916 22.1118 79.2348 27.5584C82.278 33.0049 83.8673 39.1434 83.8497 45.3825L94.8117 61.9291L85.9911 66.3075L85.0737 74.3684C84.6084 78.4187 81.0356 81.861 76.7886 83.945C72.4225 86.0859 68.3066 90.0155 68.2925 94.8818L68.2861 97.0838M26.5128 74.9254L26.449 96.9626" stroke="#FFC702" stroke-width="4.02645" stroke-linecap="round" stroke-linejoin="round"/>
<path d="M39.5068 55.8984L39.5748 32.4079M46.4537 32.4279L46.4707 26.5575M46.3687 61.7887L46.3857 55.9183M39.5408 44.1532L53.2986 44.193M53.2986 44.193C55.5798 44.1996 57.4238 46.1779 57.4167 48.6089L57.4082 51.5463C57.4012 53.9773 55.5458 55.9449 53.269 55.9383L35.3759 55.8864M53.2986 44.193C55.5754 44.1996 57.4352 42.232 57.4422 39.8011L57.4507 36.8637C57.4578 34.4327 55.6139 32.4544 53.337 32.4478L35.444 32.396" stroke="#FFC702" stroke-width="4.02645" stroke-linecap="round" stroke-linejoin="round"/>
</svg>
