<svg width="68" height="68" viewBox="0 0 68 68" fill="none" xmlns="http://www.w3.org/2000/svg">
<g clip-path="url(#clip0_145_159)">
<path d="M6.06801 3.05303L4.74011 4.29866L1.42334 7.59747L0.170483 8.91862L1.121 10.465L6.02264 18.7149L6.6802 19.8934L13.5933 19.9134L22.975 29.2799C14.5438 37.703 3.81727 48.4067 3.43983 48.7844C-0.256738 52.4586 -0.281288 58.4965 3.47204 62.0206C7.13801 65.6596 13.1288 65.7711 16.6326 62.0587L16.7034 61.9836L31.2256 47.4672L45.7386 62.1407L45.957 62.2895C49.6398 65.7827 55.5131 65.8468 58.9697 62.179L58.9699 62.1084L59.0405 62.1086C62.6547 58.4318 62.7097 52.4387 59.0081 48.9431L58.933 48.8723L46.6946 36.6291C54.9554 35.8812 61.4441 28.9231 61.5885 20.4948L61.6614 20.4951C61.671 20.448 61.6617 20.3939 61.6619 20.3468L61.6621 20.2739C61.9005 17.5544 61.32 14.9502 59.9199 12.6943L58.3135 10.193L47.3276 21.1171L44.0304 17.6509L55.2357 6.50624L52.0053 5.17446C49.9455 4.25863 47.7196 3.77565 45.4656 3.75543C36.4237 3.72924 28.9787 11.134 28.9525 20.1791C28.9496 21.1627 29.1589 22.0174 29.3115 22.9003C28.2806 23.928 27.5067 24.7705 26.2894 25.9811L16.9806 16.6148L17.0009 9.6286L15.8267 8.96398L7.60828 4.01284L6.06801 3.05303ZM45.4519 8.46154C45.7812 8.46249 46.0112 8.65611 46.3334 8.68528L37.4139 17.5564L39.025 19.2529L45.6219 26.1101L47.233 27.8066L56.5959 18.4944C56.6413 19.0357 57.026 19.4322 56.9583 20.039L56.9577 20.2602C56.9389 26.7405 51.6406 32.0102 45.1626 31.9914C44.2994 31.9889 43.2532 31.7835 42.0778 31.5401L40.8271 31.3177L39.9425 32.1975L13.3326 58.7384L13.2574 58.7381L13.2571 58.8134C11.5818 60.6369 8.65788 60.6732 6.7159 58.7192L6.71611 58.6462L6.64084 58.646C4.81803 56.9701 4.78181 54.0451 6.73507 52.1024C7.62914 51.2108 24.9424 33.8435 33.4206 25.4135L34.3807 24.4609L34.0153 23.1351C33.7929 22.1696 33.6728 21.1834 33.6569 20.1927C33.6756 13.7124 38.974 8.44277 45.4519 8.46154ZM6.78485 8.93779L12.2886 12.3374L12.2818 14.6905L11.7675 15.202L9.41532 15.1952L6.04883 9.67217L6.78485 8.93779ZM41.1028 37.6412L55.6913 52.2442L55.6911 52.3172L55.7616 52.3174C57.5868 53.9933 57.623 56.9183 55.6721 58.861L55.5968 58.8608L55.5966 58.9361C53.9213 60.7596 50.9974 60.7958 49.0554 58.8418L34.5424 44.1684L41.1028 37.6412Z" fill="white"/>
</g>
<defs>
<clipPath id="clip0_145_159">
<rect x="0.19642" width="67.8038" height="67.8038" rx="10" transform="rotate(0.16599 0.19642 0)" fill="white"/>
</clipPath>
</defs>
</svg>
