<svg width="117" height="117" viewBox="0 0 117 117" fill="none" xmlns="http://www.w3.org/2000/svg">
<path d="M5.14608 102.094L5.18551 88.4836C5.19326 85.8101 5.88916 83.3006 7.27323 80.9551C8.6573 78.6097 10.5663 76.8329 13.0003 75.6247C17.1382 73.5302 21.8017 71.7614 26.991 70.3181C32.1802 68.8749 37.8939 68.1623 44.132 68.1804C50.3702 68.1984 56.0797 68.9441 61.2605 70.4174C66.4412 71.8907 71.0944 73.6866 75.2201 75.8049C77.6471 77.0272 79.5458 78.8151 80.9162 81.1685C82.2867 83.5219 82.968 86.0354 82.9603 88.7089L82.9208 102.319L5.14608 102.094ZM30.4306 57.5681C26.6339 53.7493 24.7433 49.1664 24.7588 43.8194L23.5435 43.8159C22.8144 43.8138 22.2285 43.5901 21.7858 43.1449C21.3431 42.6996 21.1212 42.1108 21.1201 41.3784C21.119 40.646 21.3443 40.0585 21.796 39.6158C22.2478 39.1732 22.835 38.9529 23.5576 38.955L24.7728 38.9585C24.7834 35.3128 25.6841 32.0343 27.4749 29.1229C29.2657 26.2115 31.6218 23.9094 34.5433 22.2165L34.5299 26.8344C34.5278 27.5635 34.7497 28.1523 35.1956 28.6008C35.6415 29.0493 36.2274 29.273 36.9533 29.2719C37.6792 29.2707 38.268 29.0504 38.7198 28.611C39.1715 28.1716 39.3952 27.5841 39.3908 26.8484L39.4098 20.2862C40.1397 20.0453 40.9098 19.866 41.7203 19.7485C42.5308 19.6309 43.3817 19.5718 44.2729 19.5711C45.164 19.5705 46.0145 19.6345 46.8243 19.7633C47.6341 19.892 48.4032 20.0757 49.1317 20.3144L49.1127 26.8766C49.1105 27.6057 49.3324 28.1946 49.7784 28.6431C50.2243 29.0916 50.8102 29.3153 51.5361 29.3141C52.262 29.313 52.8508 29.0927 53.3025 28.6533C53.7542 28.2139 53.9779 27.6263 53.9736 26.8907L53.987 22.2728C56.8986 23.9826 59.2413 26.2983 61.0152 29.2201C62.7891 32.1418 63.6708 35.4255 63.6602 39.0712L64.8755 39.0747C65.6046 39.0768 66.1921 39.3021 66.638 39.7506C67.0839 40.1991 67.3042 40.7863 67.2989 41.5122C67.2935 42.2381 67.0698 42.8256 66.6278 43.2748C66.1858 43.7239 65.597 43.9442 64.8614 43.9356L63.6461 43.9321C63.6307 49.2791 61.7135 53.851 57.8948 57.6476C54.076 61.4443 49.4931 63.3349 44.1461 63.3194C38.7991 63.304 34.2273 61.3868 30.4306 57.5681ZM51.051 50.7641C52.9588 48.8642 53.9166 46.5774 53.9243 43.9039L34.4806 43.8476C34.4729 46.5211 35.419 48.8134 37.3189 50.7244C39.2189 52.6354 41.504 53.5931 44.1743 53.5976C46.8446 53.6021 49.1368 52.6576 51.051 50.7641ZM80.5749 73.1469L79.8563 69.4991C79.3707 69.3357 78.9062 69.1528 78.4628 68.9506C78.0194 68.7484 77.5942 68.4426 77.187 68.0331L73.7809 69.2385L71.3631 64.8566L74.0436 62.4339L74.0521 59.5173L71.3856 57.0791L73.8287 52.7113L77.2279 53.9364C77.5529 53.6133 77.9588 53.3309 78.4456 53.0893C78.9324 52.8476 79.419 52.6465 79.9056 52.4859L80.6453 48.8423L85.5062 48.8564L86.2248 52.5042C86.7104 52.6676 87.1959 52.8716 87.6813 53.116C88.1667 53.3605 88.571 53.6452 88.8941 53.9702L92.3002 52.7648L94.718 57.1467L92.0375 59.5694L92.029 62.486L94.6955 64.9242L92.2524 69.292L88.8532 68.0669C88.447 68.4708 88.0216 68.7742 87.577 68.977C87.1325 69.1799 86.6653 69.36 86.1755 69.5174L85.4358 73.161L80.5749 73.1469ZM85.5851 63.561C86.3164 62.834 86.6834 61.9844 86.6862 61.0122C86.6891 60.04 86.327 59.1883 85.5999 58.4571C84.8729 57.7258 84.0233 57.3588 83.0511 57.356C82.0789 57.3531 81.2272 57.7152 80.4959 58.4423C79.7647 59.1693 79.3977 60.0189 79.3948 60.9911C79.392 61.9633 79.7541 62.815 80.4812 63.5462C81.2082 64.2775 82.0578 64.6445 83.03 64.6473C84.0022 64.6502 84.8539 64.288 85.5851 63.561ZM91.8254 48.8747L90.868 43.7679C90.1396 43.5227 89.4713 43.2178 88.8631 42.8531C88.2549 42.4884 87.7101 42.0607 87.2287 41.5699L82.1198 43.2565L78.734 37.4135L82.8764 33.7798C82.7155 33.3742 82.6354 33.0499 82.6361 32.8069L82.6418 30.8625C82.6425 30.6195 82.7244 30.2956 82.8876 29.891L78.7664 26.2334L82.1859 20.4101L87.285 22.1262C87.7725 21.6416 88.3214 21.217 88.9317 20.8526C89.542 20.4881 90.2104 20.1871 90.937 19.9494L91.924 14.8482L98.7293 14.8679L99.6867 19.9747C100.415 20.2199 101.083 20.5264 101.692 20.8944C102.3 21.2624 102.845 21.6885 103.326 22.1727L108.435 20.4862L111.821 26.3291L107.678 29.9629C107.839 30.3684 107.919 30.6927 107.919 30.9357L107.913 32.8801C107.912 33.1232 107.83 33.447 107.667 33.8516L111.788 37.5093L108.369 43.3325L103.27 41.6164C102.782 42.1011 102.235 42.5256 101.628 42.8901C101.021 43.2545 100.351 43.5556 99.6177 43.7933L98.6307 48.8944L91.8254 48.8747ZM99.5765 36.1954C100.756 35.0258 101.349 33.5902 101.353 31.8889C101.358 30.1876 100.774 28.7471 99.6015 27.5673C98.4286 26.3876 96.993 25.7968 95.295 25.7952C93.5969 25.7935 92.1563 26.3775 90.9733 27.5472C89.7904 28.7169 89.1996 30.1524 89.2012 31.8537C89.2027 33.5551 89.7868 34.9956 90.9532 36.1753C92.1197 37.3551 93.5552 37.9458 95.2597 37.9475C96.9643 37.9492 98.4 37.3652 99.5765 36.1954Z" fill="#FFC702"/>
</svg>
