<svg width="89" height="89" viewBox="0 0 89 89" fill="none" xmlns="http://www.w3.org/2000/svg">
<path d="M44.5108 40.8025C50.8338 40.8208 55.6175 36.0646 55.6358 29.7417C55.6542 23.4188 50.898 18.635 44.5751 18.6167C38.2522 18.5984 33.4684 23.3545 33.4501 29.6774C33.4318 36.0004 38.1879 40.7841 44.5108 40.8025ZM44.5537 26.0119C46.7723 26.0184 48.247 27.5017 48.2406 29.7203C48.2342 31.9389 46.7508 33.4136 44.5323 33.4072C42.3137 33.4008 40.8389 31.9174 40.8453 29.6989C40.8518 27.4803 42.3351 26.0055 44.5537 26.0119ZM48.1977 44.5108L40.8025 44.4894C30.597 44.4598 22.2903 52.7185 22.2608 62.9239L22.2554 64.7728C22.2465 67.8418 24.7168 70.3264 27.7858 70.3353L61.0645 70.4317C64.1335 70.4406 66.6181 67.9703 66.627 64.9013L66.6323 63.0525C66.6619 52.847 58.4032 44.5404 48.1977 44.5108ZM29.656 62.9454C29.6737 56.8443 34.68 51.8669 40.7811 51.8846L48.1763 51.906C54.2774 51.9237 59.2547 56.93 59.2371 63.0311L29.656 62.9454ZM24.1739 40.7435C25.9118 40.7486 27.503 40.3095 28.8734 39.5369C27.3298 37.0633 26.3893 34.2614 26.1279 31.3574C25.8666 28.4534 26.2916 25.5286 27.3688 22.8191C26.4084 22.4836 25.3367 22.2586 24.2274 22.2554C18.9028 22.24 14.972 26.1481 14.9566 31.4727C14.9412 36.7973 18.8493 40.7281 24.1739 40.7435ZM22.7211 44.437L20.4655 44.4304C13.3291 44.4098 7.50701 50.1982 7.48634 57.3347L7.47562 61.0323C7.47262 62.0676 8.28375 62.8835 9.31908 62.8865L14.8655 62.9025C14.8865 55.6552 17.9006 49.119 22.7211 44.437ZM64.8478 40.8614C70.1724 40.8768 74.1032 36.9687 74.1186 31.6441C74.1341 26.3195 70.2259 22.3887 64.9013 22.3732C63.7551 22.3699 62.7191 22.5888 61.7568 22.9188C62.8182 25.6344 63.2263 28.5616 62.9481 31.4641C62.67 34.3665 61.7133 37.1629 60.1553 39.6275C61.5212 40.408 63.0729 40.8562 64.8478 40.8614ZM68.5347 44.5697L66.2791 44.5632C68.7429 46.9737 70.698 49.8539 72.029 53.0334C73.3599 56.2129 74.0395 59.6271 74.0276 63.0739L79.574 63.09C80.6094 63.093 81.4252 62.2819 81.4282 61.2465L81.4389 57.5489C81.4596 50.4125 75.6711 44.5904 68.5347 44.5697Z" fill="white"/>
</svg>
