<svg width="111" height="111" viewBox="0 0 111 111" fill="none" xmlns="http://www.w3.org/2000/svg">
<path d="M23.8609 8.39L18.9769 13.2389L26.202 20.5024L31.079 15.6536L23.8609 8.39ZM87.4151 8.57412L80.1481 15.7957L85.0004 20.6728L92.264 13.4546L87.4151 8.57412ZM55.63 10.6403C54.4886 10.6462 53.3355 10.7167 52.1706 10.8516L52.0669 10.8513C38.0336 12.419 26.836 23.7209 24.8551 37.6817C23.2731 48.9181 27.8782 59.1244 35.5826 65.7114C38.7336 68.4172 40.8596 72.1231 41.605 76.2089L41.5449 96.9613L49.4308 96.9842C50.6284 99.0525 52.8207 100.453 55.3698 100.46C57.9189 100.468 60.1192 99.08 61.3288 97.0186L69.2147 97.0415L69.2548 83.2066L69.5799 83.2075L69.5918 79.0985C69.6065 74.028 72.2569 68.9236 76.5503 64.962C82.2946 59.244 86.6416 51.1112 86.6687 41.7553C86.7182 24.6692 72.6958 10.5306 55.63 10.6403ZM55.61 17.5578C68.9785 17.4097 79.7899 28.3846 79.7512 41.7353C79.7303 48.9779 76.3568 55.346 71.6983 59.9742L71.8087 60.0852C67.1821 64.33 64.1809 70.0555 63.3224 76.2753L48.1939 76.2315C47.4501 70.301 44.9246 64.5556 40.1323 60.4258C34.0358 55.22 30.4164 47.3927 31.6594 38.5695C33.2025 27.6789 42.0684 18.9435 52.9046 17.7748C53.7994 17.6533 54.7003 17.582 55.603 17.5612L55.61 17.5578ZM7.11786 41.5249L7.09782 48.4423L17.474 48.4724L17.4941 41.5549L7.11786 41.5249ZM93.5862 41.7754L93.5661 48.6928L103.942 48.7229L103.962 41.8054L93.5862 41.7754ZM26.0598 69.5749L18.7962 76.7931L23.6486 81.6736L30.9052 74.452L26.0598 69.5749ZM84.8582 69.7453L79.9812 74.5942L87.1993 81.8577L92.0799 77.0054L84.8582 69.7453ZM48.5024 83.1499L62.3373 83.19L62.3173 90.1074L48.4824 90.0674L48.5024 83.1499Z" fill="#FFC702"/>
</svg>
